<svg id="logo-pink-tablet-footer" width="145" height="40" xmlns="http://www.w3.org/2000/svg"><path d="M71 18.55a1.28 1.28 0 0 1 1.26-1.29h7.13c5.06 0 8.38 2.7 8.38 7.13v.06c0 4.85-4.03 7.36-8.8 7.36h-5.43v6.8a1.28 1.28 0 0 1-.76 1.28 1.27 1.27 0 0 1-1.71-.76 1.28 1.28 0 0 1-.07-.52V18.55Zm8.07 10.97c3.7 0 6.14-2 6.14-4.99v-.06c0-3.2-2.4-4.87-5.96-4.87H73.6v9.88l5.48.04ZM92.6 18.39a1.28 1.28 0 0 1 .76-1.28 1.27 1.27 0 0 1 1.72.76c.05.16.07.34.06.52V38.6a1.28 1.28 0 0 1-.76 1.28 1.27 1.27 0 0 1-1.71-.76 1.28 1.28 0 0 1-.07-.52V18.4Zm9.08.03a1.28 1.28 0 0 1 1.26-1.25h.34a1.53 1.53 0 0 1 1.29.74l13.6 17.4V18.36c0-.33.13-.64.36-.88a1.23 1.23 0 0 1 1.74 0c.23.24.36.55.36.88v20.3c0 .14-.02.3-.08.44a1.13 1.13 0 0 1-1.07.73h-.13a1.69 1.69 0 0 1-1.31-.78l-13.91-17.81v17.41a1.26 1.26 0 0 1-1.2 1.25 1.23 1.23 0 0 1-1.2-1.25V18.42h-.05Zm25.27-.03a1.28 1.28 0 0 1 .75-1.28 1.27 1.27 0 0 1 1.45.3 1.29 1.29 0 0 1 .33.98v12.3l12.76-13.14a1.5 1.5 0 0 1 1-.45 1.27 1.27 0 0 1 1.21 1.26 1.28 1.28 0 0 1-.41.9l-7.95 7.9 8.57 10.52c.23.26.35.6.35.94a1.3 1.3 0 0 1-1.34 1.28 1.23 1.23 0 0 1-1-.58l-8.36-10.46-4.83 4.84v4.9a1.28 1.28 0 0 1-.37.89 1.26 1.26 0 0 1-2.15-.9V18.4h-.01Z"/><path fill-rule="evenodd" clip-rule="evenodd" d="m53.9 6.59 5.03 21.14a1.42 1.42 0 0 1-.22 1.3 1.36 1.36 0 0 1-1.18.53h-4.01a11.63 11.63 0 0 1-11.49 10.32c-5.92 0-10.8-4.5-11.49-10.32h-1.96A11.75 11.75 0 0 1 16.97 40c-6 0-10.94-4.57-11.61-10.47H1.45A1.36 1.36 0 0 1 .3 29a1.42 1.42 0 0 1-.24-1.27L5.1 6.6C5.45 4.26 7.64 0 13.49 0c.38 0 .76.16 1.03.43a1.5 1.5 0 0 1 0 2.1 1.45 1.45 0 0 1-1.03.44c-4.71 0-5.44 3.7-5.5 4.1L3.34 26.6h2.04a11.75 11.75 0 0 1 11.59-10.3c5.94 0 10.84 4.48 11.6 10.3h1.99a11.63 11.63 0 0 1 11.47-10.19c5.89 0 10.75 4.46 11.48 10.22v-.05h2.14L51 7.08c-.07-.42-.77-4.1-5.5-4.1a1.45 1.45 0 0 1-1.03-.44 1.5 1.5 0 0 1-.43-1.05c0-.4.15-.78.43-1.05A1.45 1.45 0 0 1 45.5 0c5.85 0 8.03 4.26 8.38 6.59ZM25.66 29.56a9.12 9.12 0 0 0-.02-2.97 8.85 8.85 0 0 0-8.68-7.38 8.85 8.85 0 0 0-8.68 7.4 9.11 9.11 0 0 0-.03 2.93 8.85 8.85 0 0 0 8.7 7.54c4.4 0 8.04-3.25 8.71-7.52Zm24.94 0a8.76 8.76 0 0 0-8.58-10.23 8.76 8.76 0 0 0-8.58 10.23 8.73 8.73 0 0 0 8.58 7.4c4.33 0 7.92-3.2 8.58-7.4Z" fill="#D22856"/></svg>